<svg width="159" height="34" viewBox="0 0 159 34" fill="none" xmlns="http://www.w3.org/2000/svg">
<path d="M27.6476 0.00826136L20.743 19.556C20.2109 21.1217 19.7622 22.7146 19.3987 24.3278H19.2609C19.0034 22.7198 18.601 21.1383 18.0586 19.6028L11.1539 0.00550722H0V17.1892H6.85918V14.7812C6.85918 12.3236 6.75713 9.46478 6.55307 6.20455H6.76405C7.03074 7.75963 7.38469 9.29849 7.82426 10.8139L15.8857 33.0616H22.1009L30.0204 10.5838C30.4666 9.1476 30.8207 7.68441 31.0806 6.20316H31.2667C31.0829 8.78655 30.991 11.1463 30.991 13.2825V33.0616H38.5078V0L27.6476 0.00826136ZM0.00138788 33.0698H6.86052V24.8512H0.00138788V33.0698Z" fill="black"/>
<path d="M52.2552 27.0292V19.4678H63.3099V13.4272H52.2552C49.7174 13.4566 47.1797 13.4864 44.6418 13.5167V33.0657H64.9091V27.0265H52.2524L52.2552 27.0292ZM64.1343 6.06963V0.0083335H44.6418V6.06963H64.1343Z" fill="black"/>
<path d="M75.5625 27.0292V19.4678H86.617V13.4272H75.5625C73.0246 13.4566 70.4868 13.4864 67.949 13.5167V33.0657H88.2163V27.0265H75.5597L75.5625 27.0292ZM87.4415 6.06963V0.0083335H67.949V6.06963H87.4415Z" fill="black"/>
<path d="M117.911 6.06961H108.272V33.0699H100.637V6.06961H91.0393V0.0083335H117.911V6.06961Z" fill="black"/>
<path d="M134.454 0.0083335H130.898V3.56107H134.454V0.0083335Z" fill="#5DEFC4"/>
<path d="M129.582 0.0083335H126.027V3.56107H129.582V0.0083335Z" fill="#5DEFC4"/>
<path d="M129.582 4.875H126.027V8.42774H129.582V4.875Z" fill="#5DEFC4"/>
<path d="M134.454 4.875H130.898V8.42774H134.454V4.875Z" fill="#FD0177"/>
<path d="M134.454 9.725H130.898V13.2778H134.454V9.725Z" fill="#5DEFC4"/>
<path d="M139.196 9.725H135.639V13.2778H139.196V9.725Z" fill="#5DEFC4"/>
<path d="M139.196 19.4917H135.639V23.0444H139.196V19.4917Z" fill="#5DEFC4"/>
<path d="M139.196 14.6083H135.639V18.1611H139.196V14.6083Z" fill="#FD0177"/>
<path d="M134.454 19.4917H130.898V23.0444H134.454V19.4917Z" fill="#FFE160"/>
<path d="M134.454 24.5H130.898V28.0526H134.454V24.5Z" fill="#C86AF8"/>
<path d="M134.454 29.5167H130.898V33.0694H134.454V29.5167Z" fill="#5DEFC4"/>
<path d="M129.582 29.5167H126.027V33.0694H129.582V29.5167Z" fill="#5DEFC4"/>
<path d="M129.582 24.5H126.027V28.0526H129.582V24.5Z" fill="#238EF0"/>
<path d="M143.933 14.6083H140.377V18.1611H143.933V14.6083Z" fill="#5DEFC4"/>
<path d="M149.203 14.6083H145.648V18.1611H149.203V14.6083Z" fill="#5DEFC4"/>
<path d="M149.203 10.2417H145.648V13.7944H149.203V10.2417Z" fill="#FD0177"/>
<path d="M149.203 19.4917H145.648V23.0444H149.203V19.4917Z" fill="#5DEFC4"/>
<path d="M154.075 19.4917H150.519V23.0444H154.075V19.4917Z" fill="#FD0177"/>
<path d="M154.075 24.5H150.519V28.0526H154.075V24.5Z" fill="#5DEFC4"/>
<path d="M154.075 29.5167H150.519V33.0694H154.075V29.5167Z" fill="#5DEFC4"/>
<path d="M158.815 29.5167H155.26V33.0694H158.815V29.5167Z" fill="#5DEFC4"/>
<path d="M158.815 24.5H155.26V28.0526H158.815V24.5Z" fill="#FBDF75"/>
<path d="M154.075 9.46667H150.519V13.0194H154.075V9.46667Z" fill="#5DEFC4"/>
<path d="M154.075 4.875H150.519V8.42774H154.075V4.875Z" fill="#5DEFC4"/>
<path d="M154.075 0.0083335H150.519V3.56107H154.075V0.0083335Z" fill="#238EF0"/>
<path d="M158.815 0.0083335H155.26V3.56107H158.815V0.0083335Z" fill="#5DEFC4"/>
<path d="M158.815 4.875H155.26V8.42774H158.815V4.875Z" fill="#C86AF8"/>
</svg>
